<svg width="17" height="17" viewBox="0 0 17 17" fill="none" xmlns="http://www.w3.org/2000/svg">
<path d="M2.4283 17C2.76363 17 3.03545 16.7282 3.03545 16.3928V14.175C6.16126 17.2012 11.1485 17.1205 14.1747 13.9947C15.6009 12.5216 16.3965 10.5504 16.3926 8.50002C16.3926 8.16469 16.1207 7.89286 15.7854 7.89286C15.4501 7.89286 15.1783 8.16469 15.1783 8.50002C15.1775 12.1885 12.1869 15.178 8.49838 15.1773C6.62512 15.1769 4.83817 14.3898 3.57334 13.0081L6.26297 12.1113C6.58151 12.0053 6.75387 11.6612 6.64789 11.3427C6.54191 11.0242 6.1978 10.8518 5.87926 10.9578L2.23641 12.172C1.98774 12.2549 1.82029 12.4879 1.82111 12.75V16.3929C1.82115 16.7282 2.09297 17 2.4283 17Z" fill="#325AFE"/>
<path d="M1.21437 9.10718C1.5497 9.10718 1.82153 8.83535 1.82153 8.50002C1.82227 4.81157 4.81294 1.82205 8.50143 1.82279C10.3747 1.82315 12.1616 2.61024 13.4265 3.992L10.7368 4.88873C10.4183 4.99471 10.2459 5.33882 10.3519 5.65736C10.4579 5.97589 10.802 6.14825 11.1206 6.04227L14.7634 4.828C15.0121 4.74519 15.1795 4.5121 15.1787 4.25002V0.607172C15.1787 0.271845 14.9069 1.71661e-05 14.5716 1.71661e-05C14.2362 1.71661e-05 13.9644 0.271845 13.9644 0.607172V2.82508C10.8386 -0.201157 5.85136 -0.120438 2.82516 3.00537C1.39897 4.47848 0.60334 6.44964 0.607288 8.50002C0.607218 8.83535 0.879045 9.10718 1.21437 9.10718Z" fill="#325AFE"/>
</svg>
