<svg width="29" height="29" viewBox="0 0 29 29" fill="none" xmlns="http://www.w3.org/2000/svg">
<path fill-rule="evenodd" clip-rule="evenodd" d="M14.5 29C22.5081 29 29 22.5081 29 14.5C29 6.49187 22.5081 0 14.5 0C6.49187 0 0 6.49187 0 14.5C0 22.5081 6.49187 29 14.5 29ZM14.5 27.26C21.5472 27.26 27.26 21.5472 27.26 14.5C27.26 7.45285 21.5472 1.74 14.5 1.74C7.45285 1.74 1.74 7.45285 1.74 14.5C1.74 21.5472 7.45285 27.26 14.5 27.26ZM15.5524 20.88V14.4993H17.4399L17.69 12.3004H15.5524L15.5556 11.1999C15.5556 10.6264 15.614 10.3191 16.4967 10.3191H17.6766V8.12H15.7889C13.5215 8.12 12.7234 9.18667 12.7234 10.9805V12.3007H11.31V14.4995H12.7234V20.88H15.5524Z" fill="white" fill-opacity="0.8"/>
</svg>
