<svg xmlns="http://www.w3.org/2000/svg" xmlns:xlink="http://www.w3.org/1999/xlink" viewBox="0 0 28.72 28.72"><defs><style>.cls-1{fill:none;}.cls-2{opacity:0.8;}.cls-3{fill:#fff;}.cls-4{clip-path:url(#clip-path);}</style><clipPath id="clip-path"><rect class="cls-1" x="8.21" y="8.21" width="12.31" height="12.31"/></clipPath></defs><title>inst</title><g id="Слой_2" data-name="Слой 2"><g id="Слой_1-2" data-name="Слой 1"><g class="cls-2"><path class="cls-3" d="M14.36,28.72A14.36,14.36,0,1,1,28.72,14.36,14.37,14.37,0,0,1,14.36,28.72ZM14.36,2A12.36,12.36,0,1,0,26.72,14.36,12.38,12.38,0,0,0,14.36,2Z"/></g><g class="cls-4"><g class="cls-2"><path class="cls-3" d="M17.19,8.21H11.54a3.33,3.33,0,0,0-3.33,3.33v5.65a3.34,3.34,0,0,0,3.33,3.33h5.65a3.34,3.34,0,0,0,3.33-3.33V11.54A3.34,3.34,0,0,0,17.19,8.21Zm-2.83,9.52a3.37,3.37,0,1,1,3.37-3.37A3.37,3.37,0,0,1,14.36,17.73Zm3.45-5.94a1,1,0,1,1,1-1A1,1,0,0,1,17.81,11.79Z"/></g><g class="cls-2"><circle class="cls-3" cx="14.36" cy="14.36" r="2.05"/></g><g class="cls-2"><path class="cls-3" d="M17.81,10.52a.28.28,0,1,0,.27.28A.27.27,0,0,0,17.81,10.52Z"/></g></g></g></g></svg>