<svg width="160" height="60" viewBox="0 0 160 60" fill="none" xmlns="http://www.w3.org/2000/svg">
<path d="M27.1145 18.3672V44.0815H22.9008V25.7509L15.0962 38.6815H14.5832L6.77865 25.7141V44.0815H2.56491V18.3672H7.10842L14.8397 31.2243L22.6077 18.3672H27.1145ZM47.398 25.7141H51.3553V44.0815H47.398V41.4366C45.9079 43.5182 43.7705 44.559 40.9858 44.559C38.4698 44.559 36.3201 43.6284 34.5369 41.7672C32.7537 39.8815 31.8621 37.5917 31.8621 34.8978C31.8621 32.1794 32.7537 29.8897 34.5369 28.0284C36.3201 26.1672 38.4698 25.2366 40.9858 25.2366C43.7705 25.2366 45.9079 26.2652 47.398 28.3223V25.7141ZM37.4682 39.1223C38.5675 40.2243 39.9476 40.7754 41.6087 40.7754C43.2698 40.7754 44.6499 40.2243 45.7492 39.1223C46.8484 37.9958 47.398 36.5876 47.398 34.8978C47.398 33.208 46.8484 31.8121 45.7492 30.7101C44.6499 29.5835 43.2698 29.0203 41.6087 29.0203C39.9476 29.0203 38.5675 29.5835 37.4682 30.7101C36.369 31.8121 35.8194 33.208 35.8194 34.8978C35.8194 36.5876 36.369 37.9958 37.4682 39.1223ZM71.467 25.7141H75.351V43.2366C75.351 46.0284 74.435 48.1713 72.6029 49.6652C70.7708 51.159 68.5479 51.906 65.9342 51.906C61.7082 51.906 58.8136 50.4243 57.2502 47.4611L60.6579 45.4774C61.6105 47.3631 63.3937 48.306 66.0075 48.306C67.7174 48.306 69.0487 47.8529 70.0014 46.9468C70.9785 46.0652 71.467 44.8284 71.467 43.2366V40.9958C69.9769 43.1264 67.8518 44.1917 65.0914 44.1917C62.5021 44.1917 60.3159 43.2733 58.5327 41.4366C56.7495 39.5754 55.8579 37.3346 55.8579 34.7141C55.8579 32.0937 56.7495 29.8652 58.5327 28.0284C60.3159 26.1672 62.5021 25.2366 65.0914 25.2366C67.8518 25.2366 69.9769 26.3019 71.467 28.4325V25.7141ZM61.464 38.8284C62.5876 39.9305 63.98 40.4815 65.6411 40.4815C67.3021 40.4815 68.6823 39.9305 69.7815 38.8284C70.9052 37.7264 71.467 36.355 71.467 34.7141C71.467 33.0733 70.9052 31.7019 69.7815 30.5999C68.6823 29.4978 67.3021 28.9468 65.6411 28.9468C63.98 28.9468 62.5876 29.4978 61.464 30.5999C60.3647 31.7019 59.8151 33.0733 59.8151 34.7141C59.8151 36.355 60.3647 37.7264 61.464 38.8284ZM89.6734 44.559C87.2063 44.559 85.1055 43.9958 83.3711 42.8692C81.6612 41.7427 80.4643 40.1999 79.7803 38.2407L83.4078 36.1101C84.4337 38.9999 86.5589 40.4448 89.7834 40.4448C91.3711 40.4448 92.5559 40.1386 93.3375 39.5264C94.1437 38.8897 94.5467 38.0692 94.5467 37.0652C94.5467 36.0121 94.1192 35.2162 93.2643 34.6774C92.4093 34.1141 90.8948 33.5019 88.7208 32.8407C87.4994 32.4733 86.5101 32.1305 85.7528 31.8121C84.9956 31.4937 84.1895 31.0529 83.3345 30.4897C82.504 29.9019 81.8811 29.1794 81.4658 28.3223C81.0505 27.4652 80.8429 26.4611 80.8429 25.3101C80.8429 23.0325 81.649 21.2325 83.2612 19.9101C84.8734 18.5631 86.8154 17.8896 89.0872 17.8896C91.1391 17.8896 92.9345 18.3917 94.4734 19.3958C96.0124 20.3999 97.1971 21.7835 98.0276 23.5468L94.4734 25.6039C93.3986 23.2039 91.6032 22.0039 89.0872 22.0039C87.8658 22.0039 86.8887 22.2978 86.1559 22.8856C85.423 23.4488 85.0566 24.2203 85.0566 25.1999C85.0566 26.155 85.423 26.9141 86.1559 27.4774C86.9131 28.0162 88.2689 28.5917 90.2231 29.2039C91.2001 29.5223 91.9085 29.7672 92.3482 29.9386C92.8124 30.0856 93.4475 30.3305 94.2536 30.6733C95.0841 31.0162 95.707 31.359 96.1223 31.7019C96.5376 32.0448 96.9772 32.4733 97.4414 32.9876C97.9299 33.5019 98.2719 34.0897 98.4673 34.7509C98.6627 35.4121 98.7605 36.159 98.7605 36.9917C98.7605 39.3182 97.9177 41.1672 96.2322 42.5386C94.5711 43.8856 92.3849 44.559 89.6734 44.559ZM112.737 29.5346H108.193V38.3509C108.193 39.1101 108.364 39.6611 108.706 40.0039C109.048 40.3223 109.549 40.506 110.208 40.555C110.892 40.5794 111.735 40.5672 112.737 40.5182V44.0815C109.708 44.4488 107.533 44.1917 106.214 43.3101C104.895 42.4039 104.236 40.7509 104.236 38.3509V29.5346H100.865V25.7141H104.236V21.7468L108.193 20.5713V25.7141H112.737V29.5346ZM125.137 44.559C122.45 44.559 120.166 43.6284 118.286 41.7672C116.405 39.906 115.464 37.6162 115.464 34.8978C115.464 32.1794 116.405 29.8897 118.286 28.0284C120.166 26.1672 122.45 25.2366 125.137 25.2366C127.849 25.2366 130.133 26.1672 131.989 28.0284C133.87 29.8897 134.81 32.1794 134.81 34.8978C134.81 37.6162 133.87 39.906 131.989 41.7672C130.133 43.6284 127.849 44.559 125.137 44.559ZM121.07 39.0488C122.169 40.1509 123.525 40.7019 125.137 40.7019C126.749 40.7019 128.105 40.1509 129.204 39.0488C130.304 37.9468 130.853 36.5631 130.853 34.8978C130.853 33.2325 130.304 31.8488 129.204 30.7468C128.105 29.6448 126.749 29.0937 125.137 29.0937C123.525 29.0937 122.169 29.6448 121.07 30.7468C119.971 31.8488 119.421 33.2325 119.421 34.8978C119.421 36.5631 119.971 37.9468 121.07 39.0488ZM143.262 28.7999C144.264 26.5223 146.145 25.3835 148.905 25.3835V29.6815C147.391 29.5835 146.071 29.9509 144.948 30.7835C143.824 31.5917 143.262 32.9386 143.262 34.8243V44.0815H139.305V25.7141H143.262V28.7999Z" fill="black"/>
<path d="M73.2824 15.3976V2.44922H157.557V57.5513H73.2824V52.3035" stroke="black" stroke-width="3"/>
</svg>
