<?xml version="1.0" encoding="utf-8"?><svg xmlns="http://www.w3.org/2000/svg" xmlns:xlink="http://www.w3.org/1999/xlink"><symbol viewBox="0 0 5 8" id="arr-r" xmlns="http://www.w3.org/2000/svg"><path fill-rule="evenodd" clip-rule="evenodd" d="M0 1.061L1.061 0l3.532 3.532L1.06 7.063 0 6.003l2.47-2.471L0 1.06z"/></symbol><symbol viewBox="0 0 29 16" id="arrow-l" xmlns="http://www.w3.org/2000/svg"><path d="M.293 7.293a1 1 0 000 1.414l6.364 6.364a1 1 0 001.414-1.414L2.414 8l5.657-5.657A1 1 0 006.657.93L.293 7.293zM29 7H1v2h28V7z"/></symbol><symbol viewBox="0 0 22 21" id="basket" xmlns="http://www.w3.org/2000/svg"><path d="M3.08 19.169l-1.88-11A1 1 0 012.185 7h17.63a1 1 0 01.985 1.168l-1.88 11a1 1 0 01-.986.832H4.066a1 1 0 01-.986-.831zM16.94 7H5.06C5.482 3.514 8.08 1 11 1c2.92 0 5.518 2.514 5.94 6z"/></symbol><symbol viewBox="0 0 21 22" id="cabinet" xmlns="http://www.w3.org/2000/svg"><path d="M19.589 21.796a9.294 9.294 0 10-18.589 0"/><circle cx="10.294" cy="6.925" r="5.506"/></symbol><symbol viewBox="0 0 14 14" id="close" xmlns="http://www.w3.org/2000/svg"><path fill-rule="evenodd" clip-rule="evenodd" d="M14 1.4L12.6 0 7 5.6 1.4 0 0 1.4 5.6 7 0 12.6 1.4 14 7 8.4l5.6 5.6 1.4-1.4L8.4 7 14 1.4z"/></symbol><symbol viewBox="0 0 29 29" id="fb" xmlns="http://www.w3.org/2000/svg"><path fill-rule="evenodd" clip-rule="evenodd" d="M14.5 29C22.508 29 29 22.508 29 14.5S22.508 0 14.5 0 0 6.492 0 14.5 6.492 29 14.5 29zm0-1.74c7.047 0 12.76-5.713 12.76-12.76S21.547 1.74 14.5 1.74 1.74 7.453 1.74 14.5 7.453 27.26 14.5 27.26zm1.052-6.38V14.5h1.888l.25-2.2h-2.138l.004-1.1c0-.574.058-.88.94-.88h1.18v-2.2H15.79c-2.268 0-3.066 1.067-3.066 2.86v1.32H11.31v2.2h1.413v6.38h2.83z" fill-opacity=".8"/></symbol><symbol viewBox="0 0 28.72 28.72" id="inst" xmlns="http://www.w3.org/2000/svg"><defs><clipPath id="gclip-path"><path d="M8.21 8.21h12.31v12.31H8.21z"/></clipPath><style>.gcls-2{opacity:.8}.gcls-3{fill:#fff}</style></defs><g id="gСлой_2" data-name="Слой 2"><g id="gСлой_1-2" data-name="Слой 1"><g class="gcls-2"><path class="gcls-3" d="M14.36 28.72a14.36 14.36 0 1114.36-14.36 14.37 14.37 0 01-14.36 14.36zm0-26.72a12.36 12.36 0 1012.36 12.36A12.38 12.38 0 0014.36 2z"/></g><g clip-path="url(#gclip-path)"><g class="gcls-2"><path class="gcls-3" d="M17.19 8.21h-5.65a3.33 3.33 0 00-3.33 3.33v5.65a3.34 3.34 0 003.33 3.33h5.65a3.34 3.34 0 003.33-3.33v-5.65a3.34 3.34 0 00-3.33-3.33zm-2.83 9.52a3.37 3.37 0 113.37-3.37 3.37 3.37 0 01-3.37 3.37zm3.45-5.94a1 1 0 111-1 1 1 0 01-1 1z"/></g><g class="gcls-2"><circle class="gcls-3" cx="14.36" cy="14.36" r="2.05"/></g><g class="gcls-2"><path class="gcls-3" d="M17.81 10.52a.28.28 0 10.27.28.27.27 0 00-.27-.28z"/></g></g></g></g></symbol><symbol viewBox="0 0 160 60" id="logo" xmlns="http://www.w3.org/2000/svg"><path d="M27.114 18.367v25.714h-4.213v-18.33l-7.805 12.93h-.513L6.78 25.715v18.367H2.565V18.367h4.543l7.732 12.857 7.768-12.857h4.506zm20.284 7.347h3.957v18.367h-3.957v-2.644c-1.49 2.081-3.628 3.122-6.412 3.122-2.516 0-4.666-.93-6.45-2.792-1.782-1.886-2.674-4.175-2.674-6.87 0-2.718.892-5.007 2.675-6.869 1.783-1.86 3.933-2.791 6.449-2.791 2.785 0 4.922 1.028 6.412 3.085v-2.608zm-9.93 13.408c1.1 1.102 2.48 1.653 4.14 1.653 1.662 0 3.042-.55 4.141-1.653 1.1-1.126 1.649-2.534 1.649-4.224 0-1.69-.55-3.086-1.649-4.188-1.1-1.127-2.48-1.69-4.14-1.69-1.661 0-3.041.564-4.14 1.69-1.1 1.102-1.65 2.498-1.65 4.188 0 1.69.55 3.098 1.65 4.224zm33.999-13.408h3.884v17.523c0 2.791-.916 4.934-2.748 6.428-1.832 1.494-4.055 2.241-6.669 2.241-4.226 0-7.12-1.482-8.684-4.445l3.408-1.984c.953 1.886 2.736 2.829 5.35 2.829 1.71 0 3.04-.453 3.993-1.36.977-.88 1.466-2.118 1.466-3.71v-2.24c-1.49 2.13-3.615 3.196-6.376 3.196-2.589 0-4.775-.919-6.558-2.755-1.784-1.862-2.675-4.102-2.675-6.723 0-2.62.892-4.849 2.675-6.686 1.783-1.86 3.97-2.791 6.558-2.791 2.76 0 4.886 1.065 6.376 3.196v-2.719zM61.464 38.828c1.124 1.102 2.516 1.653 4.177 1.653 1.661 0 3.041-.55 4.14-1.653 1.124-1.102 1.686-2.473 1.686-4.114 0-1.64-.562-3.012-1.686-4.114-1.099-1.102-2.479-1.653-4.14-1.653-1.661 0-3.053.55-4.177 1.653-1.1 1.102-1.649 2.473-1.649 4.114s.55 3.012 1.649 4.114zm28.21 5.731c-2.468 0-4.569-.563-6.303-1.69-1.71-1.126-2.907-2.67-3.59-4.628l3.627-2.13c1.026 2.889 3.15 4.334 6.375 4.334 1.588 0 2.773-.306 3.555-.919.806-.636 1.209-1.457 1.209-2.46 0-1.054-.428-1.85-1.283-2.389-.855-.563-2.37-1.175-4.543-1.836-1.222-.368-2.21-.71-2.968-1.029-.757-.318-1.564-.76-2.418-1.322-.831-.588-1.454-1.31-1.87-2.168-.415-.857-.622-1.86-.622-3.012 0-2.277.806-4.077 2.418-5.4 1.612-1.347 3.554-2.02 5.826-2.02 2.052 0 3.847.502 5.386 1.506 1.54 1.004 2.724 2.387 3.555 4.15l-3.555 2.058c-1.074-2.4-2.87-3.6-5.386-3.6-1.221 0-2.198.294-2.931.882-.733.563-1.1 1.334-1.1 2.314 0 .955.367 1.714 1.1 2.277.757.54 2.113 1.115 4.067 1.727.977.318 1.686.563 2.125.735.464.147 1.1.392 1.906.734.83.343 1.453.686 1.868 1.029.416.343.855.771 1.32 1.286a4.3 4.3 0 011.025 1.763c.196.661.293 1.408.293 2.24 0 2.327-.842 4.176-2.528 5.548-1.66 1.347-3.847 2.02-6.559 2.02zm23.063-15.024h-4.544v8.816c0 .76.171 1.31.513 1.653.342.318.843.502 1.502.551.684.024 1.527.012 2.529-.037v3.563c-3.029.368-5.204.11-6.523-.77-1.319-.907-1.978-2.56-1.978-4.96v-8.816h-3.371v-3.82h3.371v-3.968l3.957-1.176v5.143h4.544v3.82zm12.4 15.024c-2.687 0-4.971-.93-6.851-2.792-1.881-1.861-2.822-4.15-2.822-6.87 0-2.718.941-5.007 2.822-6.869 1.88-1.86 4.164-2.791 6.851-2.791 2.712 0 4.996.93 6.852 2.791 1.881 1.862 2.821 4.151 2.821 6.87 0 2.718-.94 5.008-2.821 6.87-1.856 1.86-4.14 2.791-6.852 2.791zm-4.067-5.51c1.099 1.102 2.455 1.653 4.067 1.653s2.968-.551 4.067-1.653c1.1-1.102 1.649-2.486 1.649-4.151 0-1.666-.549-3.05-1.649-4.151-1.099-1.102-2.455-1.653-4.067-1.653s-2.968.55-4.067 1.653c-1.099 1.102-1.649 2.486-1.649 4.15 0 1.666.55 3.05 1.649 4.152zm22.192-10.25c1.002-2.277 2.883-3.415 5.643-3.415v4.297c-1.514-.098-2.834.27-3.957 1.102-1.124.809-1.686 2.156-1.686 4.041v9.258h-3.957V25.713h3.957V28.8z"/><path d="M73.282 15.398V2.449h84.275v55.102H73.282v-5.248"/></symbol><symbol viewBox="0 0 160 60" id="logo-black" xmlns="http://www.w3.org/2000/svg"><path d="M27.114 18.367v25.714h-4.213v-18.33l-7.805 12.93h-.513L6.78 25.715v18.367H2.565V18.367h4.543l7.732 12.857 7.768-12.857h4.506zm20.284 7.347h3.957v18.367h-3.957v-2.644c-1.49 2.081-3.628 3.122-6.412 3.122-2.516 0-4.666-.93-6.45-2.792-1.782-1.886-2.674-4.175-2.674-6.87 0-2.718.892-5.007 2.675-6.869 1.783-1.86 3.933-2.791 6.449-2.791 2.785 0 4.922 1.028 6.412 3.085v-2.608zm-9.93 13.408c1.1 1.102 2.48 1.653 4.14 1.653 1.662 0 3.042-.55 4.141-1.653 1.1-1.126 1.649-2.534 1.649-4.224 0-1.69-.55-3.086-1.649-4.188-1.1-1.127-2.48-1.69-4.14-1.69-1.661 0-3.041.564-4.14 1.69-1.1 1.102-1.65 2.498-1.65 4.188 0 1.69.55 3.098 1.65 4.224zm33.999-13.408h3.884v17.523c0 2.791-.916 4.934-2.748 6.428-1.832 1.494-4.055 2.241-6.669 2.241-4.226 0-7.12-1.482-8.684-4.445l3.408-1.984c.953 1.886 2.736 2.829 5.35 2.829 1.71 0 3.04-.453 3.993-1.36.977-.88 1.466-2.118 1.466-3.71v-2.24c-1.49 2.13-3.615 3.196-6.376 3.196-2.589 0-4.775-.919-6.558-2.755-1.784-1.862-2.675-4.102-2.675-6.723 0-2.62.892-4.849 2.675-6.686 1.783-1.86 3.97-2.791 6.558-2.791 2.76 0 4.886 1.065 6.376 3.196v-2.719zM61.464 38.828c1.124 1.102 2.516 1.653 4.177 1.653 1.661 0 3.041-.55 4.14-1.653 1.124-1.102 1.686-2.473 1.686-4.114 0-1.64-.562-3.012-1.686-4.114-1.099-1.102-2.479-1.653-4.14-1.653-1.661 0-3.053.55-4.177 1.653-1.1 1.102-1.649 2.473-1.649 4.114s.55 3.012 1.649 4.114zm28.21 5.731c-2.468 0-4.569-.563-6.303-1.69-1.71-1.126-2.907-2.67-3.59-4.628l3.627-2.13c1.026 2.889 3.15 4.334 6.375 4.334 1.588 0 2.773-.306 3.555-.919.806-.636 1.209-1.457 1.209-2.46 0-1.054-.428-1.85-1.283-2.389-.855-.563-2.37-1.175-4.543-1.836-1.222-.368-2.21-.71-2.968-1.029-.757-.318-1.564-.76-2.418-1.322-.831-.588-1.454-1.31-1.87-2.168-.415-.857-.622-1.86-.622-3.012 0-2.277.806-4.077 2.418-5.4 1.612-1.347 3.554-2.02 5.826-2.02 2.052 0 3.847.502 5.386 1.506 1.54 1.004 2.724 2.387 3.555 4.15l-3.555 2.058c-1.074-2.4-2.87-3.6-5.386-3.6-1.221 0-2.198.294-2.931.882-.733.563-1.1 1.334-1.1 2.314 0 .955.367 1.714 1.1 2.277.757.54 2.113 1.115 4.067 1.727.977.318 1.686.563 2.125.735.464.147 1.1.392 1.906.734.83.343 1.453.686 1.868 1.029.416.343.855.771 1.32 1.286a4.3 4.3 0 011.025 1.763c.196.661.293 1.408.293 2.24 0 2.327-.842 4.176-2.528 5.548-1.66 1.347-3.847 2.02-6.559 2.02zm23.063-15.024h-4.544v8.816c0 .76.171 1.31.513 1.653.342.318.843.502 1.502.551.684.024 1.527.012 2.529-.037v3.563c-3.029.368-5.204.11-6.523-.77-1.319-.907-1.978-2.56-1.978-4.96v-8.816h-3.371v-3.82h3.371v-3.968l3.957-1.176v5.143h4.544v3.82zm12.4 15.024c-2.687 0-4.971-.93-6.851-2.792-1.881-1.861-2.822-4.15-2.822-6.87 0-2.718.941-5.007 2.822-6.869 1.88-1.86 4.164-2.791 6.851-2.791 2.712 0 4.996.93 6.852 2.791 1.881 1.862 2.821 4.151 2.821 6.87 0 2.718-.94 5.008-2.821 6.87-1.856 1.86-4.14 2.791-6.852 2.791zm-4.067-5.51c1.099 1.102 2.455 1.653 4.067 1.653s2.968-.551 4.067-1.653c1.1-1.102 1.649-2.486 1.649-4.151 0-1.666-.549-3.05-1.649-4.151-1.099-1.102-2.455-1.653-4.067-1.653s-2.968.55-4.067 1.653c-1.099 1.102-1.649 2.486-1.649 4.15 0 1.666.55 3.05 1.649 4.152zm22.192-10.25c1.002-2.277 2.883-3.415 5.643-3.415v4.297c-1.514-.098-2.834.27-3.957 1.102-1.124.809-1.686 2.156-1.686 4.041v9.258h-3.957V25.713h3.957V28.8z"/><path d="M73.282 15.398V2.449h84.275v55.102H73.282v-5.248"/></symbol><symbol viewBox="0 0 20 22" id="loop" xmlns="http://www.w3.org/2000/svg"><path d="M13.303 15l5 6"/><circle cx="8.995" cy="9.006" r="7.406"/></symbol><symbol viewBox="0 0 30 19" id="menu" xmlns="http://www.w3.org/2000/svg"><path d="M0 0h30v3H0zm0 8h20v3H0zm0 8h10v3H0z"/></symbol><symbol viewBox="0 0 82 8" id="next" xmlns="http://www.w3.org/2000/svg"><path opacity=".5" d="M81.354 4.354a.5.5 0 000-.708L78.172.464a.5.5 0 10-.707.708L80.293 4l-2.829 2.828a.5.5 0 10.708.708l3.182-3.182zM0 4.5h81v-1H0v1z"/></symbol><symbol viewBox="0 0 79 8" id="prev" xmlns="http://www.w3.org/2000/svg"><path opacity=".5" d="M.646 3.646a.5.5 0 000 .707l3.182 3.182a.5.5 0 00.708-.707L1.707 4l2.829-2.83a.5.5 0 00-.708-.707L.646 3.646zM79 3.5H1v1h78v-1z"/></symbol><symbol viewBox="0 0 29 29" id="vk" xmlns="http://www.w3.org/2000/svg"><defs><style>.ncls-1{fill:#f2c94c}</style></defs><g id="nСлой_2" data-name="Слой 2"><g id="nСлой_1-2" data-name="Слой 1"><path class="ncls-1" d="M5.45 11.74a14.08 14.08 0 00.68 1.48 18 18 0 002 3.25A10.83 10.83 0 0011 19.12a4.93 4.93 0 001 .45 4.8 4.8 0 003.24.11c.45-.3-.08-2.28.33-2.51s1.13.28 1.67.75a17 17 0 011.25 1.2 3.13 3.13 0 00.56.59 2.79 2.79 0 001.4.21h1.27c.28 0 .65-.13.63-.48a.62.62 0 00-.06-.26 3.26 3.26 0 00-.29-.48 17.53 17.53 0 00-1.21-1.43 17.76 17.76 0 01-1.51-1.6c-.07-.21-.1-.31.12-.6s.68-1 1-1.54c.23-.33.44-.68.65-1a12.6 12.6 0 00.66-1.26.81.81 0 00.11-.59.35.35 0 00-.27-.3 1.07 1.07 0 00-.25 0h-1.6a3.62 3.62 0 00-.46 0 .61.61 0 00-.46.35l-.38.63-.26.43c-.14.23-.27.46-.41.68l-.17.28a12.33 12.33 0 01-1.76 2.15c-.28.08-.38 0-.38-.51v-3.81s0-.25-.25-.25h-3.6s-.53 0-.34.48.74.63.74 1.42v3.13s-.09.7-.7.12a8.4 8.4 0 01-1.22-1.56 11.89 11.89 0 01-.91-1.82l-.22-.54-.24-.56c-.09-.22-.18-.51-.42-.61a1 1 0 00-.38-.05H6c-.33 0-.74 0-.82.41a1.59 1.59 0 00.12.71z"/><path class="ncls-1" d="M14.5 29A14.5 14.5 0 1129 14.5 14.51 14.51 0 0114.5 29zm0-27A12.5 12.5 0 1027 14.5 12.52 12.52 0 0014.5 2z"/></g></g></symbol></svg>