<svg width="97" height="40" viewBox="0 0 97 40" fill="none" xmlns="http://www.w3.org/2000/svg">
<circle cx="20" cy="20" r="20" fill="#F2C94C"/>
<path d="M28.34 14H30.8V28H28.5V18.02L24.24 25.06H23.96L19.7 18V28H17.4V14H19.88L24.1 21L28.34 14ZM41.3714 19.42V18H43.5314V28H41.3714V26.56C40.5581 27.6933 39.3914 28.26 37.8714 28.26C36.4981 28.26 35.3247 27.7533 34.3514 26.74C33.3781 25.7267 32.8914 24.48 32.8914 23C32.8914 21.52 33.3781 20.2733 34.3514 19.26C35.3247 18.2467 36.4981 17.74 37.8714 17.74C39.3914 17.74 40.5581 18.3 41.3714 19.42ZM35.9514 25.3C36.5514 25.9 37.3047 26.2 38.2114 26.2C39.1181 26.2 39.8714 25.9 40.4714 25.3C41.0714 24.6867 41.3714 23.92 41.3714 23C41.3714 22.08 41.0714 21.32 40.4714 20.72C39.8714 20.1067 39.1181 19.8 38.2114 19.8C37.3047 19.8 36.5514 20.1067 35.9514 20.72C35.3514 21.32 35.0514 22.08 35.0514 23C35.0514 23.9067 35.3514 24.6733 35.9514 25.3ZM54.0091 19.48V18H56.1291V27.54C56.1291 29.06 55.6291 30.2267 54.6291 31.04C53.6424 31.8533 52.4291 32.26 50.9891 32.26C48.6824 32.26 47.1024 31.4533 46.2491 29.84L48.1091 28.76C48.6291 29.7867 49.6024 30.3 51.0291 30.3C51.9624 30.3 52.6891 30.0533 53.2091 29.56C53.7424 29.08 54.0091 28.4067 54.0091 27.54V26.32C53.1957 27.48 52.0357 28.06 50.5291 28.06C49.1291 28.06 47.9357 27.56 46.9491 26.56C45.9757 25.5467 45.4891 24.3267 45.4891 22.9C45.4891 21.46 45.9757 20.2467 46.9491 19.26C47.9224 18.2467 49.1157 17.74 50.5291 17.74C52.0357 17.74 53.1957 18.32 54.0091 19.48ZM48.5491 25.14C49.1624 25.74 49.9224 26.04 50.8291 26.04C51.7357 26.04 52.4891 25.74 53.0891 25.14C53.7024 24.54 54.0091 23.7933 54.0091 22.9C54.0091 22.0067 53.7024 21.26 53.0891 20.66C52.4891 20.06 51.7357 19.76 50.8291 19.76C49.9224 19.76 49.1624 20.06 48.5491 20.66C47.9491 21.26 47.6491 22.0067 47.6491 22.9C47.6491 23.7933 47.9491 24.54 48.5491 25.14ZM63.4467 28.26C62.1001 28.26 60.9534 27.96 60.0067 27.36C59.0734 26.7467 58.4201 25.9 58.0467 24.82L60.0267 23.66C60.5867 25.2333 61.7467 26.02 63.5067 26.02C64.3601 26.02 65.0067 25.8533 65.4467 25.52C65.8867 25.1867 66.1067 24.74 66.1067 24.18C66.1067 23.62 65.8734 23.1867 65.4067 22.88C64.9401 22.5733 64.1134 22.24 62.9267 21.88C61.7134 21.52 60.7334 21.0933 59.9867 20.6C59.0801 19.96 58.6267 19.02 58.6267 17.78C58.6267 16.54 59.0667 15.56 59.9467 14.84C60.8134 14.1067 61.8734 13.74 63.1267 13.74C64.2334 13.74 65.2067 14.0133 66.0467 14.56C66.9001 15.0933 67.5534 15.8467 68.0067 16.82L66.0667 17.94C65.4801 16.6333 64.5001 15.98 63.1267 15.98C62.4601 15.98 61.9267 16.14 61.5267 16.46C61.1267 16.7667 60.9267 17.1867 60.9267 17.72C60.9267 18.24 61.1267 18.6533 61.5267 18.96C61.9267 19.2533 62.6667 19.5667 63.7467 19.9C64.4134 20.1267 64.8001 20.26 64.9067 20.3C65.0801 20.3533 65.4267 20.4867 65.9467 20.7C66.3734 20.8733 66.7134 21.06 66.9667 21.26C68.0067 22.0733 68.4867 23.0333 68.4067 24.14C68.4067 25.4067 67.9467 26.4133 67.0267 27.16C66.1334 27.8933 64.9401 28.26 63.4467 28.26ZM75.5353 18V20.08H73.0553V24.88C73.0553 25.2933 73.1486 25.5933 73.3353 25.78C73.522 25.9533 73.7953 26.0533 74.1553 26.08C74.5286 26.0933 74.9886 26.0867 75.5353 26.06V28C73.882 28.2 72.6953 28.06 71.9753 27.58C71.2553 27.0867 70.8953 26.1867 70.8953 24.88V20.08H69.0553V18H70.8953V15.84L73.0553 15.2V18H75.5353ZM85.5442 26.74C84.5309 27.7533 83.2842 28.26 81.8042 28.26C80.3242 28.26 79.0776 27.7533 78.0642 26.74C77.0376 25.7133 76.5242 24.4667 76.5242 23C76.5242 21.5333 77.0376 20.2867 78.0642 19.26C79.0776 18.2467 80.3242 17.74 81.8042 17.74C83.2842 17.74 84.5309 18.2467 85.5442 19.26C86.5709 20.2867 87.0842 21.5333 87.0842 23C87.0842 24.4667 86.5709 25.7133 85.5442 26.74ZM78.6842 23C78.6842 23.9067 78.9842 24.66 79.5842 25.26C80.1842 25.86 80.9242 26.16 81.8042 26.16C82.6842 26.16 83.4242 25.86 84.0242 25.26C84.6242 24.66 84.9242 23.9067 84.9242 23C84.9242 22.0933 84.6242 21.34 84.0242 20.74C83.4242 20.14 82.6842 19.84 81.8042 19.84C80.9242 19.84 80.1842 20.14 79.5842 20.74C78.9842 21.34 78.6842 22.0933 78.6842 23ZM91.1973 18V19.68C91.744 18.44 92.7707 17.82 94.2773 17.82V20.16C93.464 20.1067 92.744 20.3067 92.1173 20.76C91.504 21.2 91.1973 21.9333 91.1973 22.96V28H89.0373V18H91.1973Z" fill="black"/>
</svg>
