<svg width="61" height="71" viewBox="0 0 61 71" fill="none" xmlns="http://www.w3.org/2000/svg">
<rect x="5.24438" y="10.0219" width="45.989" height="54.8901" rx="2" fill="#20203A"/>
<path d="M47.8132 45.2966V68.0219C47.8132 69.1264 46.9178 70.0219 45.8132 70.0219H3C1.89543 70.0219 1 69.1264 1 68.0219V15.9779C1 14.8733 1.89543 13.9779 3 13.9779H16.8242" stroke="white" stroke-width="1.4"/>
<path opacity="0.5" d="M43.8158 18.1812H5.24438V65.6537H24.5301L43.8158 46.368V18.1812Z" fill="#9D9999"/>
<circle cx="24.5304" cy="39.6921" r="10.3846" fill="#403726"/>
<circle cx="24.5304" cy="39.6921" r="9.68462" fill="#403726" stroke="white" stroke-width="1.4"/>
<mask id="path-6-inside-1" fill="white">
<path d="M11.8826 43.9709C10.9577 41.2369 10.9436 38.2769 11.8424 35.5342C12.7412 32.7916 14.5046 30.414 16.8682 28.7578L24.5301 39.6922L11.8826 43.9709Z"/>
</mask>
<path d="M11.8826 43.9709C10.9577 41.2369 10.9436 38.2769 11.8424 35.5342C12.7412 32.7916 14.5046 30.414 16.8682 28.7578L24.5301 39.6922L11.8826 43.9709Z" fill="#F2C94C" stroke="white" stroke-width="2.8" mask="url(#path-6-inside-1)"/>
<path d="M21.9341 54.8982C29.7225 54.1564 24.5302 65.6536 24.5302 65.6536L43.816 46.3679L21.9341 54.8982Z" fill="#9D9999"/>
<circle cx="47.154" cy="13.978" r="13.2462" fill="#13131D" stroke="white" stroke-width="1.2"/>
<line x1="47.6538" y1="0.860474" x2="47.6538" y2="4.5042" stroke="white"/>
<line x1="47.8538" y1="23.8682" x2="47.8538" y2="27.5119" stroke="white" stroke-width="1.4"/>
<line x1="60.2712" y1="14.478" x2="56.6275" y2="14.478" stroke="white"/>
<line x1="37.6802" y1="14.678" x2="34.0364" y2="14.678" stroke="white" stroke-width="1.4"/>
<circle opacity="0.2" cx="47.4836" cy="13.6484" r="6.92308" fill="white"/>
<path d="M44.8882 16.7032H41.2002V15.9832L43.1522 13.9912C43.6269 13.5166 43.8642 13.1059 43.8642 12.7592C43.8642 12.4926 43.7842 12.2819 43.6242 12.1272C43.4642 11.9726 43.2562 11.8952 43.0002 11.8952C42.5309 11.8952 42.1842 12.1272 41.9602 12.5912L41.1842 12.1352C41.3549 11.7672 41.6002 11.4872 41.9202 11.2952C42.2402 11.0979 42.5975 10.9992 42.9922 10.9992C43.4882 10.9992 43.9095 11.1539 44.2562 11.4632C44.6082 11.7779 44.7842 12.1992 44.7842 12.7272C44.7842 13.2926 44.4669 13.9006 43.8322 14.5512L42.5682 15.8152H44.8882V16.7032ZM48.9334 14.8392H49.5734V15.6952H48.9334V16.7032H48.0054V15.6952H45.2534V14.8392L47.1814 11.1032H48.1814L46.2534 14.8392H48.0054V13.3832H48.9334V14.8392ZM52.646 14.5352V12.7032H53.51V16.7032H52.646V15.3512C52.3314 15.4686 51.9954 15.5272 51.638 15.5272C51.1314 15.5272 50.7367 15.4046 50.454 15.1592C50.1714 14.9086 50.03 14.5486 50.03 14.0792V12.7032H50.894V13.9992C50.894 14.4792 51.1794 14.7192 51.75 14.7192C52.0754 14.7192 52.374 14.6579 52.646 14.5352Z" fill="white"/>
</svg>
