<svg width="78" height="92" viewBox="0 0 78 92" fill="none" xmlns="http://www.w3.org/2000/svg">
<rect x="7.4375" width="69.75" height="83.25" rx="2" fill="#20203A"/>
<path d="M72 53.5V89C72 90.1046 71.1046 91 70 91H3C1.89543 91 1 90.1046 1 89V8C1 6.89543 1.89543 6 3 6H25" stroke="white" stroke-width="1.4"/>
<path opacity="0.5" d="M65.9375 12.375H7.4375V84.375H36.6875L65.9375 55.125V12.375Z" fill="#9D9999"/>
<circle cx="36.6875" cy="45" r="15.75" fill="#403726"/>
<circle cx="36.6875" cy="45" r="15.05" fill="#403726" stroke="white" stroke-width="1.4"/>
<mask id="path-6-inside-1" fill="white">
<path d="M17.5054 51.4893C16.1027 47.3428 16.0813 42.8534 17.4445 38.6937C18.8077 34.534 21.4821 30.928 25.067 28.4161L36.6875 45L17.5054 51.4893Z"/>
</mask>
<path d="M17.5054 51.4893C16.1027 47.3428 16.0813 42.8534 17.4445 38.6937C18.8077 34.534 21.4821 30.928 25.067 28.4161L36.6875 45L17.5054 51.4893Z" fill="#F2C94C" stroke="white" stroke-width="2.8" mask="url(#path-6-inside-1)"/>
<path d="M32.75 68.0626C44.5625 66.9376 36.6875 84.375 36.6875 84.375L65.9375 55.125L32.75 68.0626Z" fill="#9D9999"/>
</svg>
