<svg width="58" height="58" viewBox="0 0 58 58" fill="none" xmlns="http://www.w3.org/2000/svg">
<path opacity="0.05" d="M29 58C45.0163 58 58 45.0163 58 29C58 12.9837 45.0163 0 29 0C12.9837 0 0 12.9837 0 29C0 45.0163 12.9837 58 29 58Z" fill="white"/>
<path opacity="0.1" d="M28.9999 51.6385C41.5029 51.6385 51.6385 41.5029 51.6385 28.9999C51.6385 16.497 41.5029 6.36133 28.9999 6.36133C16.497 6.36133 6.36133 16.497 6.36133 28.9999C6.36133 41.5029 16.497 51.6385 28.9999 51.6385Z" fill="white"/>
<path d="M43.8372 33.721V22.7562C43.8372 16.3166 37.3341 9.44189 29.3372 9.44189C21.3402 9.44189 14.8372 16.4036 14.8372 22.7562V32.0676" stroke="white" stroke-width="2" stroke-miterlimit="10"/>
<path d="M22.2922 42.4154V48.2847" stroke="white" stroke-width="2" stroke-miterlimit="10"/>
<path d="M36.5461 42.4154V48.2847" stroke="white" stroke-width="2" stroke-miterlimit="10"/>
<path d="M38.2471 45.7935L29.8875 54.1531L33.2669 57.5325L41.6265 49.1729L38.2471 45.7935Z" fill="#9D9999"/>
<path d="M20.69 45.7934L17.3105 49.1729L25.6702 57.5325L29.0496 54.1531L20.69 45.7934Z" fill="#9D9999"/>
<path d="M15.7186 35.0332H16.4229V26.6486H15.7186C13.505 26.6486 11.3921 28.4094 11.3921 30.254V31.4278C11.3921 33.3563 13.505 35.0332 15.7186 35.0332Z" fill="#F2C94C"/>
<path d="M18.8838 35.4069H15.8489L15.5117 22.9302C15.7815 20.772 16.7482 18.6588 17.1978 17.872C21.7838 10.8581 27.8761 10.2286 30.3489 10.7906C40.0606 11.8697 42.9381 19.3333 43.1629 22.9302V35.4069C43.1629 39.993 39.566 40.9147 37.7675 40.8023L38.1047 40.4651C39.9931 38.3069 40.0156 33.0465 39.7908 30.686C33.5861 29.3372 27.7637 24.0542 25.628 21.5813C22.121 21.5813 19.6706 25.6279 18.8838 27.6511V35.4069Z" fill="#403726"/>
<path d="M39.9 30.6769V33.6954C39.9 38.5585 37.3846 43.0023 33.1923 45.5177C33.1084 45.5177 33.1084 45.6016 33.1084 45.6016C30.9284 46.9432 28.1615 46.9432 25.8976 45.6016C25.8138 45.6016 25.7299 45.5177 25.6461 45.5177C21.4537 43.0023 18.8545 38.5585 18.8545 33.6954V27.323" stroke="white" stroke-width="2" stroke-miterlimit="10"/>
<path d="M23.9692 17.2614C23.9692 23.1306 35.6239 30.6768 41.577 30.6768" stroke="white" stroke-width="2" stroke-miterlimit="10"/>
<path d="M18.9385 27.323C19.6931 24.8076 23.1308 21.4537 25.6462 21.4537" stroke="white" stroke-width="2" stroke-miterlimit="10"/>
<path d="M29.8384 40.7385H34.8692H38.3907C40.3192 40.7385 41.9962 39.5647 42.6669 37.8039L43.17 36.5462V34.8693" stroke="white" stroke-width="2" stroke-miterlimit="10"/>
<path d="M30.677 42.4155H28.1616C27.2392 42.4155 26.4846 41.6609 26.4846 40.7385V39.9001C26.4846 38.9778 27.2392 38.2231 28.1616 38.2231H30.677C31.5993 38.2231 32.3539 38.9778 32.3539 39.9001V40.7385C32.3539 41.6609 31.5993 42.4155 30.677 42.4155Z" fill="#F2C94C"/>
<path d="M43.1492 35.7441H42.4883V27.6511H43.1492C45.4153 27.6511 47.2092 29.1888 47.2092 31.1312V32.2642C47.1148 34.2065 45.3209 35.7441 43.1492 35.7441Z" fill="#F2C94C"/>
</svg>
