<svg width="86" height="86" viewBox="0 0 86 86" fill="none" xmlns="http://www.w3.org/2000/svg">
<path opacity="0.05" d="M43 86C66.7482 86 86 66.7482 86 43C86 19.2518 66.7482 0 43 0C19.2518 0 0 19.2518 0 43C0 66.7482 19.2518 86 43 86Z" fill="white"/>
<path opacity="0.1" d="M42.9999 76.5675C61.5388 76.5675 76.5675 61.5388 76.5675 42.9999C76.5675 24.4611 61.5388 9.43237 42.9999 9.43237C24.4611 9.43237 9.43237 24.4611 9.43237 42.9999C9.43237 61.5388 24.4611 76.5675 42.9999 76.5675Z" fill="white"/>
<path d="M65 50V33.7419C65 24.1935 55.3576 14 43.5 14C31.6424 14 22 24.3226 22 33.7419V47.5484" stroke="white" stroke-width="2" stroke-miterlimit="10"/>
<path d="M33.054 62.8918V71.5945" stroke="white" stroke-width="2" stroke-miterlimit="10"/>
<path d="M54.1891 62.8918V71.5945" stroke="white" stroke-width="2" stroke-miterlimit="10"/>
<path d="M56.7113 67.9006L44.316 80.2959L49.3269 85.3068L61.7222 72.9115L56.7113 67.9006Z" fill="#9D9999"/>
<path d="M30.6782 67.9008L25.6674 72.9116L38.0627 85.3069L43.0735 80.2961L30.6782 67.9008Z" fill="#9D9999"/>
<path d="M23.307 51.9459H24.3513V39.5134H23.307C20.0248 39.5134 16.8918 42.1243 16.8918 44.8594V46.5999C16.8918 49.4594 20.0248 51.9459 23.307 51.9459Z" fill="#F2C94C"/>
<path d="M28 52.4999H23.5L23 33.9999C23.4 30.7998 24.8333 27.6665 25.5 26.4999C32.3 16.0999 41.3333 15.1666 45 15.9999C59.4 17.5999 63.6667 28.6666 64 33.9999V52.4999C64 59.2999 58.6667 60.6666 56 60.4999L56.5 59.9999C59.3 56.7999 59.3333 48.9999 59 45.4999C49.8 43.4999 41.1667 35.6666 38 31.9999C32.8 31.9999 29.1667 37.9999 28 40.9999V52.4999Z" fill="#403726"/>
<path d="M59.162 45.4864V49.9621C59.162 57.1729 55.4322 63.7621 49.216 67.4918C49.0917 67.4918 49.0917 67.6162 49.0917 67.6162C45.8593 69.6054 41.7566 69.6054 38.3998 67.6162C38.2755 67.6162 38.1512 67.4918 38.0268 67.4918C31.8106 63.7621 27.9566 57.1729 27.9566 49.9621V40.5134" stroke="white" stroke-width="2" stroke-miterlimit="10"/>
<path d="M35.5405 25.5945C35.5405 34.2972 52.8215 45.4864 61.6486 45.4864" stroke="white" stroke-width="2" stroke-miterlimit="10"/>
<path d="M28.081 40.5135C29.1999 36.7838 34.2972 31.8108 38.027 31.8108" stroke="white" stroke-width="2" stroke-miterlimit="10"/>
<path d="M44.2432 60.4053H51.7027H56.9243C59.7837 60.4053 62.2702 58.6648 63.2648 56.054L64.0108 54.1891V51.7026" stroke="white" stroke-width="2" stroke-miterlimit="10"/>
<path d="M45.4864 62.8918H41.7567C40.3891 62.8918 39.2702 61.7728 39.2702 60.4053V59.162C39.2702 57.7945 40.3891 56.6755 41.7567 56.6755H45.4864C46.854 56.6755 47.9729 57.7945 47.9729 59.162V60.4053C47.9729 61.7728 46.854 62.8918 45.4864 62.8918Z" fill="#F2C94C"/>
<path d="M63.98 53H63V41H63.98C67.34 41 70 43.2801 70 46.1601V47.84C69.86 50.72 67.2 53 63.98 53Z" fill="#F2C94C"/>
</svg>
