<svg width="60" height="72" viewBox="0 0 60 72" fill="none" xmlns="http://www.w3.org/2000/svg">
<path opacity="0.05" d="M29.8699 71.8492C46.3666 71.8492 59.7398 58.476 59.7398 41.9793C59.7398 25.4826 46.3666 12.1094 29.8699 12.1094C13.3732 12.1094 0 25.4826 0 41.9793C0 58.476 13.3732 71.8492 29.8699 71.8492Z" fill="white"/>
<path opacity="0.1" d="M29.8698 65.3909C42.7997 65.3909 53.2814 54.9092 53.2814 41.9793C53.2814 29.0495 42.7997 18.5677 29.8698 18.5677C16.94 18.5677 6.45825 29.0495 6.45825 41.9793C6.45825 54.9092 16.94 65.3909 29.8698 65.3909Z" fill="white"/>
<rect x="36.8447" y="11.3021" width="32.5581" height="44.3729" rx="4" transform="rotate(44.6674 36.8447 11.3021)" fill="#20203A"/>
<path d="M58.2985 7.44398C58.2985 11.1382 55.1515 14.188 51.2001 14.188C47.2487 14.188 44.1016 11.1382 44.1016 7.44398C44.1016 3.74971 47.2487 0.7 51.2001 0.7C55.1515 0.7 58.2985 3.74971 58.2985 7.44398Z" stroke="white" stroke-width="1.4"/>
<rect x="47.7787" y="13.5912" width="4.27069" height="6.84186" rx="2.13534" transform="rotate(11.9792 47.7787 13.5912)" stroke="white" stroke-width="1.4"/>
<rect x="46.0925" y="18.6962" width="4.27069" height="6.84186" rx="2.13534" transform="rotate(34.1978 46.0925 18.6962)" stroke="white" stroke-width="1.4"/>
<rect x="36.8891" y="18.281" width="21.8985" height="32.993" rx="3.3" transform="rotate(44.1543 36.8891 18.281)" fill="#58565B" stroke="white" stroke-width="1.4"/>
<circle cx="41.2899" cy="29.7355" r="2.48887" fill="white"/>
<circle cx="30.0385" cy="41.3815" r="6.46883" transform="rotate(36.8014 30.0385 41.3815)" fill="#403726" stroke="white"/>
<ellipse cx="29.8607" cy="41.1844" rx="2.1896" ry="2.09185" transform="rotate(36.8014 29.8607 41.1844)" fill="white"/>
<path d="M22.4685 38.9057C23.0037 37.2694 24.0547 35.8505 25.4641 34.8617C26.8734 33.8729 28.5652 33.3674 30.286 33.421L30.0383 41.3815L22.4685 38.9057Z" fill="#F2C94C"/>
</svg>
