<svg width="75" height="89" viewBox="0 0 75 89" fill="none" xmlns="http://www.w3.org/2000/svg">
<path opacity="0.05" d="M37 89C57.4345 89 74 72.4345 74 52C74 31.5655 57.4345 15 37 15C16.5655 15 0 31.5655 0 52C0 72.4345 16.5655 89 37 89Z" fill="white"/>
<path opacity="0.1" d="M37 81C53.0163 81 66 68.0163 66 52C66 35.9837 53.0163 23 37 23C20.9837 23 8 35.9837 8 52C8 68.0163 20.9837 81 37 81Z" fill="white"/>
<rect x="45.6396" y="14" width="40.3299" height="54.9649" rx="4" transform="rotate(44.6674 45.6396 14)" fill="#20203A"/>
<path d="M72.3817 9.22089C72.3817 13.8965 68.4012 17.7418 63.4217 17.7418C58.4422 17.7418 54.4617 13.8965 54.4617 9.22089C54.4617 4.54526 58.4422 0.7 63.4217 0.7C68.4012 0.7 72.3817 4.54526 72.3817 9.22089Z" stroke="white" stroke-width="1.4"/>
<rect x="59.0548" y="16.6372" width="5.6243" height="8.80923" rx="2.81215" transform="rotate(11.9792 59.0548 16.6372)" stroke="white" stroke-width="1.4"/>
<rect x="57.0509" y="22.927" width="5.6243" height="8.80923" rx="2.81215" transform="rotate(34.1978 57.0509 22.927)" stroke="white" stroke-width="1.4"/>
<rect x="45.6914" y="22.4085" width="27.4599" height="41.2028" rx="3.3" transform="rotate(44.1543 45.6914 22.4085)" fill="#58565B" stroke="white" stroke-width="1.4"/>
<circle cx="51.1458" cy="36.8335" r="3.08297" fill="white"/>
<circle cx="37.2086" cy="51.2594" r="8.13232" transform="rotate(36.8014 37.2086 51.2594)" fill="#403726" stroke="white"/>
<ellipse cx="36.9886" cy="51.0152" rx="2.71227" ry="2.59118" transform="rotate(36.8014 36.9886 51.0152)" fill="white"/>
<path d="M27.8318 48.1928C28.4947 46.1659 29.7966 44.4083 31.5424 43.1835C33.2881 41.9586 35.3838 41.3325 37.5154 41.3988L37.2085 51.2595L27.8318 48.1928Z" fill="#F2C94C"/>
</svg>
