<svg width="70" height="59" viewBox="0 0 70 59" fill="none" xmlns="http://www.w3.org/2000/svg">
<circle cx="28.0145" cy="31.1352" r="16.1641" fill="#20203A"/>
<path d="M34.8474 29.4089C41.0538 29.5239 53.4666 32.9259 53.4666 45.6146" stroke="white" stroke-width="1.2"/>
<path d="M34.8474 34.9258C38.985 35.004 47.2602 37.3203 47.2602 45.9594" stroke="white" stroke-width="1.2"/>
<path d="M56.2248 50.2347V49.9595C56.2248 47.7503 54.4339 45.9595 52.2248 45.9595H20.9647H16.0903C13.8812 45.9595 12.0903 47.7503 12.0903 49.9595V50.2347C12.0903 52.4438 13.8812 54.2347 16.0903 54.2347H52.2248C54.4339 54.2347 56.2248 52.4438 56.2248 50.2347Z" fill="#403726" stroke="white" stroke-width="1.5"/>
<path d="M27.7581 31.037L2.17106 17.6404" stroke="white" stroke-width="2"/>
<path d="M9.67789 21.4945L1.479 17.2365" stroke="#F2C94C" stroke-width="4"/>
<path d="M24.758 27.6389C25.1823 27.2641 25.6844 26.963 26.2511 26.7632C28.6115 25.931 31.1996 27.1699 32.0318 29.5302C32.864 31.8906 31.6251 34.4787 29.2647 35.3109C26.9044 36.1431 24.3163 34.9042 23.4841 32.5439C23.2192 31.7926 23.1642 31.0183 23.2883 30.2848" stroke="white" stroke-width="1.5"/>
<circle cx="27.7581" cy="31.0369" r="1.19938" transform="rotate(-19.4209 27.7581 31.0369)" fill="white" stroke="white"/>
<path d="M55.88 57.6825H12.0903" stroke="white" stroke-width="1.4"/>
<path d="M21.0554 25.6162V18.3754H27.9514L34.8474 23.902V41.1322H21.0554V30.4434" stroke="white" stroke-width="1.2"/>
<rect x="20.3657" y="44.5802" width="15.1712" height="2.7584" fill="#F2C94C"/>
<circle cx="27.6065" cy="31.1328" r="2.4136" fill="#F2C94C"/>
<circle cx="56.3017" cy="13.2392" r="12.6392" stroke="white" stroke-width="1.2"/>
<line x1="56.8018" y1="0.696777" x2="56.8018" y2="4.18077" stroke="white"/>
<line x1="56.8018" y1="22.2975" x2="56.8018" y2="25.7815" stroke="white"/>
<line x1="68.844" y1="13.7391" x2="65.36" y2="13.7391" stroke="white"/>
<line x1="47.2432" y1="13.7391" x2="43.7592" y2="13.7391" stroke="white"/>
<circle opacity="0.2" cx="56.5904" cy="12.9505" r="6.06154" fill="white"/>
<path d="M54.1107 15.9287H50.4227V15.2087L52.3747 13.2167C52.8493 12.742 53.0867 12.3314 53.0867 11.9847C53.0867 11.718 53.0067 11.5074 52.8467 11.3527C52.6867 11.198 52.4787 11.1207 52.2227 11.1207C51.7533 11.1207 51.4067 11.3527 51.1827 11.8167L50.4067 11.3607C50.5773 10.9927 50.8227 10.7127 51.1427 10.5207C51.4627 10.3234 51.82 10.2247 52.2147 10.2247C52.7107 10.2247 53.132 10.3794 53.4787 10.6887C53.8307 11.0034 54.0067 11.4247 54.0067 11.9527C54.0067 12.518 53.6893 13.126 53.0547 13.7767L51.7907 15.0407H54.1107V15.9287ZM58.1558 14.0647H58.7958V14.9207H58.1558V15.9287H57.2278V14.9207H54.4758V14.0647L56.4038 10.3287H57.4038L55.4758 14.0647H57.2278V12.6087H58.1558V14.0647ZM61.8685 13.7607V11.9287H62.7325V15.9287H61.8685V14.5767C61.5538 14.694 61.2178 14.7527 60.8605 14.7527C60.3538 14.7527 59.9591 14.63 59.6765 14.3847C59.3938 14.134 59.2525 13.774 59.2525 13.3047V11.9287H60.1165V13.2247C60.1165 13.7047 60.4018 13.9447 60.9725 13.9447C61.2978 13.9447 61.5965 13.8834 61.8685 13.7607Z" fill="white"/>
</svg>
