<svg width="97" height="86" viewBox="0 0 97 86" fill="none" xmlns="http://www.w3.org/2000/svg">
<circle cx="47" cy="39" r="28" fill="#20203A"/>
<path d="M58.8362 36.0098C69.5872 36.2089 91.0891 42.102 91.0891 64.0817" stroke="white" stroke-width="1.2"/>
<path d="M58.8362 45.5664C66.0035 45.702 80.3381 49.7143 80.3381 64.6792" stroke="white" stroke-width="1.2"/>
<path d="M95.8671 75.0135V68.679C95.8671 66.4698 94.0763 64.679 91.8671 64.679H34.7884H23.416C21.2068 64.679 19.416 66.4698 19.416 68.679V75.0135C19.416 77.2227 21.2068 79.0135 23.416 79.0135H91.8671C94.0762 79.0135 95.8671 77.2227 95.8671 75.0135Z" fill="#403726" stroke="white" stroke-width="1.5"/>
<path d="M46.556 38.8299L2.23328 15.6239" stroke="white" stroke-width="2"/>
<path d="M15.2371 22.3L1.03476 14.924" stroke="#F2C94C" stroke-width="4"/>
<path d="M41.3594 32.9437C42.0944 32.2944 42.9642 31.7729 43.9459 31.4267C48.0347 29.9852 52.5178 32.1311 53.9594 36.2199C55.4009 40.3086 53.2549 44.7917 49.1662 46.2333C45.0775 47.6748 40.5943 45.5289 39.1528 41.4401C38.694 40.1388 38.5986 38.7975 38.8136 37.527" stroke="white" stroke-width="1.5"/>
<circle cx="46.5559" cy="38.8299" r="2.44372" transform="rotate(-19.4209 46.5559 38.8299)" fill="white" stroke="white"/>
<path d="M95.2698 84.9863H19.416" stroke="white" stroke-width="1.4"/>
<path d="M34.9453 29.4397V16.897H46.8907L58.8362 26.4704V56.3171H34.9453V37.8016" stroke="white" stroke-width="1.2"/>
<rect x="33.7507" y="62.29" width="26.2801" height="4.7782" fill="#F2C94C"/>
<circle cx="46.2932" cy="38.9961" r="4.18092" fill="#F2C94C"/>
</svg>
