<svg width="295" height="400" viewBox="0 0 295 400" fill="none" xmlns="http://www.w3.org/2000/svg">
<mask id="mask0" mask-type="alpha" maskUnits="userSpaceOnUse" x="0" y="0" width="295" height="400">
<rect width="295" height="400" fill="#3770FC"/>
</mask>
<g mask="url(#mask0)">
<g filter="url(#filter0_d)">
<circle cx="248" cy="354" r="76" fill="url(#paint0_linear)"/>
</g>
</g>
<circle cx="201" cy="17" r="5" fill="#376FFC"/>
<circle cx="201" cy="37" r="5" fill="#376FFC"/>
<circle cx="201" cy="57" r="5" fill="#376FFC"/>
<circle cx="201" cy="77" r="5" fill="#376FFC"/>
<circle cx="221" cy="17" r="5" fill="#376FFC"/>
<circle cx="221" cy="37" r="5" fill="#376FFC"/>
<circle cx="221" cy="57" r="5" fill="#376FFC"/>
<circle cx="221" cy="77" r="5" fill="#376FFC"/>
<circle cx="241" cy="17" r="5" fill="#376FFC"/>
<circle cx="241" cy="37" r="5" fill="#376FFC"/>
<circle cx="241" cy="57" r="5" fill="#376FFC"/>
<circle cx="241" cy="77" r="5" fill="#376FFC"/>
<circle cx="261" cy="17" r="5" fill="#376FFC"/>
<circle cx="261" cy="37" r="5" fill="#376FFC"/>
<circle cx="261" cy="57" r="5" fill="#376FFC"/>
<circle cx="261" cy="77" r="5" fill="#376FFC"/>
<circle cx="281" cy="17" r="5" fill="#376FFC"/>
<circle cx="281" cy="37" r="5" fill="#376FFC"/>
<circle cx="281" cy="57" r="5" fill="#376FFC"/>
<circle cx="281" cy="77" r="5" fill="#376FFC"/>
<circle cx="17" cy="323" r="5" fill="#376FFC"/>
<circle cx="17" cy="343" r="5" fill="#376FFC"/>
<circle cx="17" cy="363" r="5" fill="#376FFC"/>
<circle cx="17" cy="383" r="5" fill="#376FFC"/>
<circle cx="37" cy="323" r="5" fill="#376FFC"/>
<circle cx="37" cy="343" r="5" fill="#376FFC"/>
<circle cx="37" cy="363" r="5" fill="#376FFC"/>
<circle cx="37" cy="383" r="5" fill="#376FFC"/>
<circle cx="57" cy="323" r="5" fill="#376FFC"/>
<circle cx="57" cy="343" r="5" fill="#376FFC"/>
<circle cx="57" cy="363" r="5" fill="#376FFC"/>
<circle cx="57" cy="383" r="5" fill="#376FFC"/>
<circle cx="77" cy="323" r="5" fill="#376FFC"/>
<circle cx="77" cy="343" r="5" fill="#376FFC"/>
<circle cx="77" cy="363" r="5" fill="#376FFC"/>
<circle cx="77" cy="383" r="5" fill="#376FFC"/>
<circle cx="97" cy="323" r="5" fill="#376FFC"/>
<circle cx="97" cy="343" r="5" fill="#376FFC"/>
<circle cx="97" cy="363" r="5" fill="#376FFC"/>
<circle cx="97" cy="383" r="5" fill="#376FFC"/>
<defs>
<filter id="filter0_d" x="152" y="258" width="192" height="192" filterUnits="userSpaceOnUse" color-interpolation-filters="sRGB">
<feFlood flood-opacity="0" result="BackgroundImageFix"/>
<feColorMatrix in="SourceAlpha" type="matrix" values="0 0 0 0 0 0 0 0 0 0 0 0 0 0 0 0 0 0 127 0"/>
<feOffset/>
<feGaussianBlur stdDeviation="10"/>
<feColorMatrix type="matrix" values="0 0 0 0 0.0649306 0 0 0 0 0.191088 0 0 0 0 0.708333 0 0 0 0.25 0"/>
<feBlend mode="normal" in2="BackgroundImageFix" result="effect1_dropShadow"/>
<feBlend mode="normal" in="SourceGraphic" in2="effect1_dropShadow" result="shape"/>
</filter>
<linearGradient id="paint0_linear" x1="207" y1="293.5" x2="291.5" y2="411" gradientUnits="userSpaceOnUse">
<stop stop-color="#376FFC"/>
<stop offset="1" stop-color="#1F49B3" stop-opacity="0"/>
</linearGradient>
</defs>
</svg>
